<svg xmlns="http://www.w3.org/2000/svg" width="635.21" height="467.264" viewBox="0 0 635.21 467.264"><defs><style>.a{fill:#6c63ff;opacity:0.1;}.b{fill:#d0cde1;}.c{fill:#575a89;}.d{fill:#ff70bc;}.e{fill:#fff;opacity:0.2;}.f{fill:#fbbebe;}.g{fill:#75738c;}.h{fill:#2f2e41;}.i{fill:#dfe5ee;}.j{fill:#603556;}.k{fill:#a0616a;}.l{fill:#b9cce9;}.m{fill:#ffd59f;}.n{fill:#ff91c1;}.o{fill:#ffdd6e;}</style></defs><g transform="translate(111.839 -2.001)"><path class="a" d="M295.653,358.087h2.054v2.024h-2.325Zm23.283,0a.131.131,0,0,1,0,.048l.181,1.675v.3H301.285v-.121l-1.271-1.9Zm47.679,0V292.625H346.134c.217-.181.44-.361.669-.53l.3-.229c.126-.1.253-.2.386-.289s.446-.319.681-.476.38-.259.6-.386l.139-.09h17.7v-3.584l.476.229.506.283h.036l.108.066.313.2c.108.066.217.133.319.2.313.211.6.44.934.675l.3.241c.2.157.4.319.6.482.8.657,1.59,1.343,2.41,1.976.2.163.41.319.6.47a15.56,15.56,0,0,0,1.361.892,6.478,6.478,0,0,0,.6.331l.337.157.307.133h0a12.8,12.8,0,0,0,2.241.711v63.992h30.722a.928.928,0,0,1-.06.211c-.169.6-.337,1.2-.5,1.807H378.066v70.173h-.47l-.536.036-.976.072-1.578.157-.711.084-.783.1H372.9c-.452.06-.91.133-1.373.2l-.3.048-.663.108-.952.169h0l-2.283-.12h0l-.313.066a1.828,1.828,0,0,0-.386.078V360.111H319.159v-.3l-.181-1.675a.133.133,0,0,0,0-.048Zm-70.962,0h2.054v2.024h-2.325Zm24.566,0,.2,2.024H300.587l-1.349-2.024Zm46.384,0V292.625H346.122c.217-.181.44-.361.669-.53l.3-.229c.126-.1.253-.2.385-.289s.446-.319.681-.476.38-.259.6-.386l.139-.09h17.716v-3.584l.476.229.506.283h.036l.108.066.313.2c.108.066.217.133.319.2.313.211.6.44.934.675l.3.241c.2.157.4.319.6.482.8.657,1.59,1.343,2.41,1.976.2.163.41.319.6.47a15.56,15.56,0,0,0,1.361.892,6.478,6.478,0,0,0,.6.331l.337.157.307.133h0a12.8,12.8,0,0,0,2.241.711v63.992h30.722a.928.928,0,0,1-.06.211c-.169.6-.343,1.2-.506,1.807H378.066v70.167l-.47.03-.536.036-.976.072-1.578.157-.711.084-.783.1H372.9c-.452.06-.91.133-1.373.2l-.3.048-.663.108-.952.169h0l-2.283-.12h0l-.313.066a1.828,1.828,0,0,0-.386.078V360.111H320.424l-.217-2.024ZM211.39,221.766H82.34c0-.675,0-1.349.042-2.024H211.39v-79.48c3.831,1.024,7.656,2.084,11.445,3.151v76.329H363.193l.355-.386-.536-.6h0l-52.2-57.294q7.831.361,15.662.163l40.143,44.035V157.509q5.747-.994,11.445-2.2v48.131l58.691-64.378c7.367-2.41,14.735-4.861,22.12-7.229L379.1,219.356l.355.386H525.875V115.528q2.928-.331,5.861-.6,2.8-.247,5.614-.386v105.2H639.926V138.66q5.837,3.253,11.445,6.909v74.173h55.788c.139.669.277,1.349.4,2.024H651.42V290.6h53.029c-.157.675-.319,1.349-.482,2.024H651.4v65.462h44.511c.115.675.229,1.349.355,2.024H651.4V543.148a103.278,103.278,0,0,1-11.445,1.488V360.111h-102.6v168.3q-5.771-1.873-11.476-3.922V360.111H378.084V507.155a84.938,84.938,0,0,1-11.373-3.922l-.1-.042V360.111H222.872v68.956q-5.717-1.03-11.445-1.97V360.111H109.219q-.506-1.012-.994-2.024H211.39V292.625H87.521c-.126-.675-.241-1.349-.355-2.024H211.39Zm428.53,0H537.351V290.6H639.926Zm0,136.321V292.625H537.351v65.462ZM525.869,221.766H378.084V290.6H525.875Zm0,136.321V292.625H378.084v65.462Zm-303,0H366.615V292.625H222.872Zm0-67.468H366.615v-67.01l-2.018-1.843H222.872Zm96.064,67.468a.131.131,0,0,1,0,.048l.181,1.675v.3H301.279v-.121l-1.271-1.9Zm-23.283,0H297.7v2.024h-2.325Zm70.962,0V292.625H346.128c.217-.181.44-.361.669-.53l.3-.229c.126-.1.253-.2.386-.289s.446-.319.681-.476.38-.259.6-.386l.139-.09h17.71v-3.584l.476.229.506.283h.036l.108.066.313.2c.108.066.217.133.319.2.313.211.6.44.934.675l.3.241c.2.157.4.319.6.482.8.657,1.59,1.343,2.41,1.976.2.163.41.319.6.47a15.56,15.56,0,0,0,1.361.892,6.478,6.478,0,0,0,.6.331l.337.157.307.133h0a12.8,12.8,0,0,0,2.241.711v63.992h30.722a.928.928,0,0,1-.06.211c-.169.6-.337,1.2-.5,1.807H378.066v70.173h-.47l-.536.036-.976.072-1.578.157-.711.084-.783.1H372.9c-.452.06-.91.133-1.373.2l-.3.048-.663.108-.952.169h0l-2.283-.12h0l-.313.066a1.828,1.828,0,0,0-.386.078V360.111H319.159v-.3l-.181-1.675a.133.133,0,0,0,0-.048Z" transform="translate(-194.179 -75.729)"/><path class="a" d="M75.277,290.443c.114.675.229,1.349.355,2.024,4.084,22.975,10.753,45.125,20.668,65.462q.488,1.012.994,2.024a187.087,187.087,0,0,0,23.288,35.915c4.94,5.958,10.325,11.614,16.728,15.7,8.976,5.723,19.469,8.048,29.782,9.952,10.717,1.982,21.572,3.614,32.4,5.422q5.759.94,11.445,1.97c10.464,1.892,20.849,4.078,30.987,6.976a161.079,161.079,0,0,1,36.144,14.867q1.373.783,2.717,1.608c.9.542,1.807,1.1,2.681,1.663s1.753,1.126,2.62,1.7l1.337.9c.44.289.874.6,1.307.892,1.289.879,2.56,1.807,3.831,2.7l.048.036q1.256.9,2.5,1.807c4.693,3.476,9.283,7.114,13.855,10.765l2.885,2.307q2.235,1.771,4.47,3.536c.873.693,1.759,1.379,2.638,2.066.639.5,1.271,1,1.922,1.494,3.259,2.512,6.56,4.97,9.927,7.319.8.56,1.614,1.12,2.41,1.669A127.044,127.044,0,0,0,354.63,503.01l.1.042a84.95,84.95,0,0,0,11.373,3.922,68.1,68.1,0,0,0,6.7,1.452,59.2,59.2,0,0,0,18.162.313c11.861-1.681,22.975-7.229,34.806-9.084,24.409-3.789,48.113,8.433,71.082,18.03q8.434,3.53,17.054,6.626,5.711,2.06,11.476,3.922a361.306,361.306,0,0,0,72,15.4,166.382,166.382,0,0,0,30.571.825,103.246,103.246,0,0,0,11.445-1.488c12.873-2.41,24.891-7.524,34.571-16.867,8.042-7.644,13.717-17.638,18.042-28.065q2.608-6.283,4.6-12.855a143.371,143.371,0,0,0,4.681-20.981c.235-1.6.446-3.211.6-4.819q.47-4.138.7-8.313a143.973,143.973,0,0,0-4.283-43.975c-4.1-15.9-10.945-31.12-13.957-47.167-.126-.675-.241-1.349-.355-2.024q-.6-3.614-.916-7.361c-1.518-19.626,4.355-38.836,8.994-58.077.163-.675.325-1.349.482-2.024q.753-3.2,1.428-6.4c4.3-20.349,5.47-42.125,1.657-62.432-.12-.675-.259-1.355-.4-2.024a100.986,100.986,0,0,0-14.072-35.2c-7.138-10.939-16.512-20.042-26.505-28.041q-7.319-5.843-15.138-10.933-5.62-3.651-11.445-6.909a190.763,190.763,0,0,0-102.575-24.1q-2.813.145-5.614.386-2.94.253-5.861.6c-22.789,2.632-44.963,9.156-67,16.295q-11.078,3.614-22.12,7.229-4.916,1.6-9.825,3.163c-16.054,5.066-32.373,9.638-48.842,13.084q-5.729,1.2-11.445,2.2A270.519,270.519,0,0,1,314.68,161.5q-7.831.193-15.662-.163-3.958-.181-7.921-.53c-27.294-2.337-53.613-10.174-80.04-17.536-3.819-1.066-7.644-2.126-11.445-3.15-5.024-1.349-10.054-2.657-15.1-3.861-31.433-7.548-59.444-3.211-88.666,12.355-6.626,3.536-13.253,7.8-17.349,14.4s-5.09,14.777-5.849,22.644C71.572,196.85,70.837,208.2,70.6,219.6c0,.675,0,1.349-.042,2.024A361.088,361.088,0,0,0,75.277,290.443Z" transform="translate(-179.452 -75.572)"/><path class="b" d="M360.543,530.026l-.865-.653c7.31-13.082,5.4-30.388-4.514-40.9-.417-.443-.848-.872-1.279-1.3a22.85,22.85,0,0,1-3.4-3.969c-1.222-1.948-2.15-4.972-1.094-7.62l.935.5c-.868,2.176-.057,4.738.992,6.411a21.654,21.654,0,0,0,3.24,3.766c.439.438.877.875,1.3,1.327C366.145,498.5,368.127,516.452,360.543,530.026Z" transform="translate(-247.925 -230.763)"/><path class="c" d="M563.678,723.393c-10.386-27.4-36.307-42.038-61.266-34.611-1.045.311-2.106.667-3.133,1.011a34.57,34.57,0,0,1-8.875,2.13c-3.807.216-8.741-1.155-11.158-5.669l.875-.633c2.182,4.073,6.719,5.309,10.232,5.105a33.934,33.934,0,0,0,8.64-2.084c1.034-.347,2.1-.706,3.163-1.021,25.448-7.573,51.875,7.357,62.465,35.288Z" transform="translate(-311.086 -315.044)"/><path class="c" d="M595.141,310.629l-1.014-.217c4.681-29.437-9.657-58.488-33.888-68.663-1.014-.426-2.064-.826-3.08-1.212a36.491,36.491,0,0,1-8.368-4.041c-3.255-2.309-6.667-6.668-6.48-11.98l1.03.049c-.169,4.793,2.982,8.778,5.987,10.909a35.781,35.781,0,0,0,8.152,3.925c1.023.389,2.08.792,3.109,1.224C585.3,251,599.913,280.616,595.141,310.629Z" transform="translate(-372.648 -140.022)"/><path class="d" d="M368.13,437.63c-4.346,9.315-12.585,13.5-19.31,10.294-.1-.044-.192-.091-.285-.139l-.107.432a.35.35,0,0,1-.014.048,1.6,1.6,0,0,1-.9,1.117,1.273,1.273,0,0,1-1.305-.2l-1.724-1.314a2.067,2.067,0,0,1-.751-1.33,2.28,2.28,0,0,1,.31-1.55l.025-.036.289-.429.064-.1c-5.076-6.134-5.963-17.08-1.717-26.179,4.817-10.323,14.413-14.353,21.434-9S372.947,427.306,368.13,437.63Z" transform="translate(-243.598 -203.197)"/><path class="e" d="M4.582-.31c2.53-.171,4.531.489,4.469,1.475S6.887,3.089,4.357,3.26-.174,2.771-.112,1.785,2.051-.139,4.582-.31Z" transform="translate(103.191 210.426) rotate(-30.313)"/><path class="c" d="M352.254,473.444a.351.351,0,0,1-.014.048L347.9,470.18l.289-.429,4.461,3.4c-.1-.044-.192-.091-.285-.139Z" transform="translate(-247.425 -228.424)"/><path class="f" d="M733.2,683.7l.567,12.51,11.9-1.317-1.133-12.51Z" transform="translate(-355.356 -273.813)"/><path class="f" d="M644.126,659.511l.567,12.51,11.9-1.317-1.133-12.51Z" transform="translate(-312.186 -264.106)"/><path class="g" d="M848.247,467.02l-43.069,8.56-2.833,90.86-11.334,57.94,18.134,9.218,17.567-57.282,6.234-50.7,4.534,50.7.567,63.865,27.768-1.975-6.639-125.064a131.169,131.169,0,0,0-10.929-46.122Z" transform="translate(-462.188 -227.329)"/><path class="h" d="M883.567,761.974s-3.967-5.267-3.967-3.292-2.267,21.069-2.267,21.069,15.3,5.267,15.3,8.559,22.1,8.559,21.534,1.975-19.834-31.6-19.834-31.6S886.4,757.365,883.567,761.974Z" transform="translate(-504.025 -344.183)"/><path class="h" d="M789.488,736.788s-1.208-6.857-2.048-5.14-10.933,17.015-10.933,17.015,11.061,13.365,9.66,16.227,15.572,20.132,17.88,14.082-3.8-38.863-3.8-38.863S793.911,734.408,789.488,736.788Z" transform="translate(-455.158 -333.402)"/><path class="h" d="M647.077,253.614l31.374,3.485,10.458-33.111-30.035-8.406Z" transform="translate(-313.616 -86.504)"/><ellipse class="f" cx="15.867" cy="18.435" rx="15.867" ry="18.435" transform="translate(343.274 123.482)"/><path class="f" d="M822.782,322.416s0,12.51-8.5,17.777,20.4,11.193,20.4,11.193l2.833-11.193s-8.5-4.609-1.133-15.143Z" transform="translate(-472.708 -169.305)"/><path class="i" d="M822.4,345.726s-10.379,7.469-19.073.772l-3.594-.772-10.767,2.634-5.1,22.386,19.268,55.965s33.435,6.584,40.235-7.9L839.4,359.552l-10.767-15.143Z" transform="translate(-458.723 -178.13)"/><path class="i" d="M708.675,242.624l18.7-30.287-1.7-3.292L701.308,194.56v-9.218l37.968,11.852,2.569,4.729-22.4,56.5Z" transform="translate(-339.9 -74.37)"/><path class="i" d="M598.79,262.907l-1.133-.659-28.335-1.317L590.856,239.2l-6.8-9.876-32.3,28.311v6.584l45.9,22.386Z" transform="translate(-267.417 -92.02)"/><path class="f" d="M766.819,293.079l3.967-2.634s8.5-13.168,11.9-7.9-7.934,15.143-7.934,15.143l-6.234,2.634Z" transform="translate(-450.463 -152.807)"/><path class="f" d="M836.042,252.69l-6.234-3.95s-18.7,1.975-16.434,6.584,15.3.658,15.3.658l7.367,2.634Z" transform="translate(-472.934 -139.742)"/><path class="j" d="M811.629,271.019s-7.284,2.821-7.654,13.961a22.827,22.827,0,0,0,.506,5.29c.41,2.019.674,6.365-2.5,12.043a125.1,125.1,0,0,0-5.823,11.639l-.023.053,8,1.162,1.7-15.406a86.483,86.483,0,0,1,5.243-21.628l.055-.143s3.5,7.552,10.5,7.552l-2.5-2.9s11,5.228,15,5.228c0,0,3,2.324,0,5.809s-9,11.618-5.5,18.007.5,8.132.5,8.132l5.5-3.485,2.5-1.743v2.323l13-1.743s3.5-.581-4-10.456c0,0-1.98-3.835-1.114-7.142a19.264,19.264,0,0,0,.546-7.8C843.878,278.876,837.286,257.225,811.629,271.019Z" transform="translate(-464.668 -146.894)"/><path class="b" d="M648.858,723.87c-.062-.117-1.521-2.948-2.027-8.827-.464-5.393-.166-14.484,3.892-27.165,7.687-24.023-1.772-43.406-1.868-43.6l.467-.315a53.45,53.45,0,0,1,3.907,12.86,64.712,64.712,0,0,1-2,31.272c-7.674,23.982-1.969,35.334-1.91,35.446Z" transform="translate(-392.229 -298.33)"/><ellipse class="b" cx="3.506" cy="4.073" rx="3.506" ry="4.073" transform="translate(250.117 336.394)"/><ellipse class="b" cx="3.506" cy="4.073" rx="3.506" ry="4.073" transform="translate(261.173 351.434)"/><ellipse class="b" cx="3.506" cy="4.073" rx="3.506" ry="4.073" transform="translate(253.623 361.459)"/><ellipse class="b" cx="3.506" cy="4.073" rx="3.506" ry="4.073" transform="translate(262.792 369.919)"/><ellipse class="b" cx="3.506" cy="4.073" rx="3.506" ry="4.073" transform="translate(250.926 383.079)"/><path class="b" d="M654.5,765.912s-3.506-10.026,7.012-17.546Z" transform="translate(-395.754 -340.221)"/><path class="b" d="M633.546,770.282s-1.6-10.662-13.944-10.571Z" transform="translate(-379.112 -344.773)"/><path class="k" d="M243.816,589.106l3.092,26.943s-9.791,33.53.515,65.862l3.607,23.351h13.4l1.546-7.784s-6.184-5.987-6.184-19.758l5.153-61.67,1.031-31.733Z" transform="translate(-196.443 -274.395)"/><path class="h" d="M259.325,776.358s-5.153-3.592-5.669,0-6.7,20.357-1.031,20.357,14.945-2.994,14.945-2.994,5.669-4.79,12.368-4.79,8.245-9.58,7.215-11.975-3.607-5.987-6.184-5.389a29.467,29.467,0,0,1-5.669.6l-8.135-4.7S266.024,776.957,259.325,776.358Z" transform="translate(-200.099 -347.886)"/><path class="k" d="M308.669,572.748l13.349,22.323s4.481,35.022,26.367,58.306l12.394,18.854,11.917-7.115-1.687-7.744s-7.856-2.042-13.273-14.29l-19.676-57.589L326.494,556.72Z" transform="translate(-228.413 -263.322)"/><path class="h" d="M411.126,730.869s-6-.459-5.042,3.01,2.049,21.664,7.091,18.654,12.115-10.6,12.115-10.6,3.158-7.271,9.116-10.828,3.565-12.9,1.706-14.482-5.564-3.41-7.62-1.509a33.858,33.858,0,0,1-4.806,3.543l-9.084.141S417.32,727.844,411.126,730.869Z" transform="translate(-275.577 -326.554)"/><ellipse class="k" cx="14.429" cy="16.765" rx="14.429" ry="16.765" transform="translate(48.662 119.222)"/><path class="k" d="M89.781,239.621,77.928,258.182l14.429,5.987,6.7-17.363Z" transform="translate(-37.769 -96.15)"/><path class="l" d="M254.46,339.353l-.593-.637a16.349,16.349,0,0,0-14.351-5.351h0s.876-8.089-13.733-7.338l-6.88,6.739a36.539,36.539,0,0,0-6.957,27.841c2.577,16.765,2.834,58.976,2.834,58.976l7.73,73.645s58.233-2.994,69.055-30.536l-32.981-80.231Z" transform="translate(-181.32 -170.735)"/><path class="k" d="M268.861,378.316l5.669,35.924,23.705,45.5s0,21.555,9.791,19.16S307,456.751,307,456.751l-21.129-48.5-4.123-29.937Z" transform="translate(-209.119 -191.736)"/><path class="l" d="M112.928,285.417l1.031,20.357,15.973-1.823-2.574-20.33Z" transform="translate(-54.732 -113.805)"/><path class="m" d="M507.952,565.755c-5.945,26.184-24.4,43.74-43.009,42.3-.263-.016-.53-.04-.79-.069l-.039,1.127a.913.913,0,0,1-.01.127,4.9,4.9,0,0,1-1.665,3.492,3.578,3.578,0,0,1-3.379.726l-5.033-1.542a4.234,4.234,0,0,1-2.612-2.513,5.37,5.37,0,0,1-.034-3.94l.043-.109.5-1.289.109-.291c-16.026-9.934-24.1-35.182-18.29-60.76,6.589-29.02,28.54-47.451,49.036-41.17S514.54,536.736,507.952,565.755Z" transform="translate(-288.119 -240.808)"/><path class="e" d="M12.592-.942c6.954-.52,12.451.943,12.277,3.268S18.916,6.958,11.961,7.479-.49,6.536-.315,4.21,5.638-.422,12.592-.942Z" transform="translate(153.482 287.262) rotate(-45.222)"/><path class="c" d="M482.513,678.437a.914.914,0,0,1-.01.127l-12.68-3.886.5-1.289,13.022,3.991c-.263-.016-.53-.04-.79-.069Z" transform="translate(-306.519 -310.136)"/><path class="n" d="M720.466,159.276c17.86,14.263,24.969,38.019,17.617,55.8-.1.253-.209.507-.318.753l.841.4a.616.616,0,0,1,.093.051A3.994,3.994,0,0,1,740.78,219a4.686,4.686,0,0,1-.578,3.58l-2.862,4.438a3.791,3.791,0,0,1-2.793,1.753,3.6,3.6,0,0,1-2.991-1.236l-.068-.078-.81-.9-.184-.2c-12.924,12.516-34.789,12.3-52.236-1.635-19.795-15.808-26.393-43.27-14.736-61.344S700.671,143.469,720.466,159.276Z" transform="translate(-397.606 -99.53)"/><path class="e" d="M3.758-.23C5.833-.356,7.217,4.911,6.849,11.536S4.5,23.634,2.424,23.761-1.035,18.62-.667,12,1.682-.1,3.758-.23Z" transform="matrix(0.902, -0.431, 0.431, 0.902, 262.929, 90.569)"/><path class="c" d="M807.182,260.828a.614.614,0,0,1,.093.051l-7.212,11.182-.81-.9,7.406-11.484c-.1.253-.209.507-.318.753Z" transform="translate(-466.182 -144.13)"/><path class="o" d="M499.6,95.5c10.781,21.811,8.349,46.774-4.884,59.095-.184.177-.377.352-.567.518l.609.783a.746.746,0,0,1,.065.092,4.608,4.608,0,0,1,.861,3.5,4.14,4.14,0,0,1-1.852,2.934l-4.228,2.56a3.412,3.412,0,0,1-3.167.177,4.275,4.275,0,0,1-2.234-2.615l-.032-.1-.394-1.22-.091-.273c-16.293,4.784-35.9-6.388-46.435-27.693-11.949-24.173-7.679-52.217,9.541-62.643S487.648,71.324,499.6,95.5Z" transform="translate(-311.446 -64.696)"/><ellipse class="e" cx="12.299" cy="3.641" rx="12.299" ry="3.641" transform="translate(146.678 51.075) rotate(-89.897)"/><path class="c" d="M544.885,214.8a.744.744,0,0,1,.065.092l-10.653,6.45-.394-1.22,10.941-6.624c-.185.177-.377.352-.567.518Z" transform="translate(-337.576 -125.6)"/><path class="e" d="M4.511-.306C7-.474,8.973.176,8.911,1.147S6.781,3.041,4.29,3.21s-4.462-.481-4.4-1.452S2.02-.137,4.511-.306Z" transform="translate(434.594 355.705) rotate(-30.313)"/><path class="c" d="M995.347,715.234a.352.352,0,0,1-.014.047l-4.277-3.261.285-.423,4.393,3.349c-.094-.043-.189-.09-.281-.137Z" transform="translate(-559.143 -325.468)"/><path class="j" d="M600.835,322.227c-1.2-.8-2.049-2.474-3.368-2.87a3.879,3.879,0,0,0-2.1.151l-.079.021c-4.517,1.177-7.651,6.617-7.3,12.663l.071,1.219a3.249,3.249,0,0,1-.323,2.054,2.172,2.172,0,0,1-1.369.652c-2.449.689-3.948,4.11-4.25,7.387s.281,6.568.4,9.861-.345,6.928-2.235,9.091c-2.972,3.392-7.489,1.461-11.422,1.151,1.739,0,3.043-2.364,3.138-4.65a17.379,17.379,0,0,0-1.417-6.523,16.237,16.237,0,0,1-1.315-6.56c.226-3.131,2.1-5.639,2.817-8.653.836-3.507.03-7.272-.349-10.918-.711-6.826.4-14.511,4.408-18.923,1.68-1.845,3.735-2.98,5.581-4.525,3.309-2.763,5.918-6.816,9.262-9.5s8.04-3.684,10.958-.24c1.129,1.333,1.858,3.183,3.019,4.47,2.268,2.518,5.874,2.565,7.693,5.655,1.565,2.659,1.141,6.435.64,9.736-.668,4.4-.291,7.828-3.863,8.611C607.019,322.086,603.155,323.754,600.835,322.227Z" transform="matrix(0.985, -0.174, 0.174, 0.985, -581.004, -79.418)"/></g></svg>