<svg xmlns="http://www.w3.org/2000/svg" xmlns:xlink="http://www.w3.org/1999/xlink" width="638" height="475.506" viewBox="0 0 638 475.506"><defs><style>.a,.i{fill:#6c63ff;}.a,.f,.o{opacity:0.1;}.b{fill:#65617d;}.c{fill:url(#a);}.d{fill:#ee8e9e;}.e{fill:#dfe5ee;}.g{fill:#d48a9b;}.h{fill:#efc6cd;}.j,.o{fill:#fff;}.k{fill:#ffd037;}.l{fill:#9d9cb5;}.m{fill:#603556;}.n{fill:#5c5c8e;}.p{fill:#efc8c4;}.q{fill:#727a9c;}</style><linearGradient id="a" x1="0.5" y1="1" x2="0.5" gradientUnits="objectBoundingBox"><stop offset="0" stop-color="gray" stop-opacity="0.251"/><stop offset="0.54" stop-color="gray" stop-opacity="0.122"/><stop offset="1" stop-color="gray" stop-opacity="0.102"/></linearGradient></defs><g transform="translate(-0.012 -0.057)"><path class="a" d="M494.244,358.087H492.19v2.024h2.325Zm-23.283,0a.131.131,0,0,0,0,.048l-.181,1.675v.3h17.831v-.121l1.271-1.9Zm-47.679,0V292.625h20.481c-.217-.181-.44-.361-.669-.53l-.3-.229c-.126-.1-.253-.2-.386-.289s-.446-.319-.681-.476-.38-.259-.6-.386l-.139-.09h-17.7v-3.584l-.476.229-.506.283h-.036l-.108.066-.313.2c-.108.066-.217.133-.319.2-.313.211-.6.44-.934.675l-.3.241c-.2.157-.4.319-.6.482-.8.657-1.59,1.343-2.41,1.976-.2.163-.41.319-.6.47a15.56,15.56,0,0,1-1.361.892,6.478,6.478,0,0,1-.6.331l-.337.157-.307.133h0a12.8,12.8,0,0,1-2.241.711v63.992H381.1a.928.928,0,0,0,.06.211c.169.6.337,1.2.5,1.807H411.83v70.173h.47l.536.036.976.072,1.578.157.711.084.783.1H417c.452.06.91.133,1.373.2l.3.048.663.108.952.169h0l2.283-.12h0l.313.066a1.828,1.828,0,0,1,.386.078V360.111h47.474v-.3l.181-1.675a.133.133,0,0,1,0-.048Zm70.962,0H492.19v2.024h2.325Zm-24.566,0-.2,2.024H489.31l1.349-2.024Zm-46.384,0V292.625h20.481c-.217-.181-.44-.361-.669-.53l-.3-.229c-.126-.1-.253-.2-.385-.289s-.446-.319-.681-.476-.38-.259-.6-.386l-.139-.09H423.282v-3.584l-.476.229-.506.283h-.036l-.108.066-.313.2c-.108.066-.217.133-.319.2-.313.211-.6.44-.934.675l-.3.241c-.2.157-.4.319-.6.482-.8.657-1.59,1.343-2.41,1.976-.2.163-.41.319-.6.47a15.56,15.56,0,0,1-1.361.892,6.478,6.478,0,0,1-.6.331l-.337.157-.307.133h0a12.8,12.8,0,0,1-2.241.711v63.992H381.1a.928.928,0,0,0,.06.211c.169.6.343,1.2.506,1.807H411.83v70.167l.47.03.536.036.976.072,1.578.157.711.084.783.1H417c.452.06.91.133,1.373.2l.3.048.663.108.952.169h0l2.283-.12h0l.313.066a1.828,1.828,0,0,1,.386.078V360.111h46.209l.217-2.024ZM578.506,221.766h129.05c0-.675,0-1.349-.042-2.024H578.506v-79.48c-3.831,1.024-7.656,2.084-11.445,3.151v76.329H426.7l-.355-.386.536-.6h0l52.2-57.294q-7.831.361-15.662.163l-40.143,44.035V157.509q-5.747-.994-11.445-2.2v48.131l-58.691-64.378c-7.367-2.41-14.735-4.861-22.12-7.229L410.8,219.356l-.355.386H264.021V115.528q-2.928-.331-5.861-.6-2.8-.247-5.614-.386v105.2H149.971V138.66q-5.837,3.253-11.445,6.909v74.173H82.738c-.139.669-.277,1.349-.4,2.024h56.137V290.6H85.448c.157.675.319,1.349.482,2.024H138.5v65.462H93.99c-.114.675-.229,1.349-.355,2.024H138.5V543.148a103.277,103.277,0,0,0,11.445,1.488V360.111h102.6v168.3q5.771-1.873,11.476-3.922V360.111H411.812V507.155a84.938,84.938,0,0,0,11.373-3.922l.1-.042V360.111H567.025v68.956q5.717-1.03,11.445-1.97V360.111H680.678q.506-1.012.994-2.024H578.506V292.625h123.87c.126-.675.241-1.349.355-2.024H578.506Zm-428.53,0H252.546V290.6H149.971Zm0,136.321V292.625H252.546v65.462ZM264.027,221.766H411.812V290.6H264.021Zm0,136.321V292.625H411.812v65.462Zm303,0H423.282V292.625H567.025Zm0-67.468H423.282v-67.01l2.018-1.843H567.025Zm-96.064,67.468a.131.131,0,0,0,0,.048l-.181,1.675v.3h17.831v-.121l1.271-1.9Zm23.283,0H492.2v2.024h2.325Zm-70.962,0V292.625h20.481c-.217-.181-.44-.361-.669-.53l-.3-.229c-.126-.1-.253-.2-.386-.289s-.446-.319-.681-.476-.38-.259-.6-.386l-.139-.09h-17.71v-3.584l-.476.229-.506.283h-.036l-.108.066-.313.2c-.108.066-.217.133-.319.2-.313.211-.6.44-.934.675l-.3.241c-.2.157-.4.319-.6.482-.8.657-1.59,1.343-2.41,1.976-.2.163-.41.319-.6.47a15.56,15.56,0,0,1-1.361.892,6.478,6.478,0,0,1-.6.331l-.337.157-.307.133h0a12.8,12.8,0,0,1-2.241.711v63.992H381.1a.928.928,0,0,0,.06.211c.169.6.337,1.2.5,1.807H411.83v70.173h.47l.536.036.976.072,1.578.157.711.084.783.1H417c.452.06.91.133,1.373.2l.3.048.663.108.952.169h0l2.283-.12h0l.313.066a1.828,1.828,0,0,1,.386.078V360.111h47.474v-.3l.181-1.675a.133.133,0,0,1,0-.048Z" transform="translate(-75.167 -78.826)"/><path class="a" d="M698,290.443c-.114.675-.229,1.349-.355,2.024-4.084,22.975-10.753,45.125-20.668,65.462q-.488,1.012-.994,2.024a187.087,187.087,0,0,1-23.288,35.915c-4.94,5.958-10.325,11.614-16.728,15.7-8.976,5.723-19.469,8.048-29.782,9.952-10.717,1.982-21.572,3.614-32.4,5.422q-5.759.94-11.445,1.97c-10.464,1.892-20.849,4.078-30.987,6.976A161.079,161.079,0,0,0,495.2,450.752q-1.373.783-2.717,1.608c-.9.542-1.807,1.1-2.681,1.663s-1.753,1.126-2.62,1.7l-1.337.9c-.44.289-.874.6-1.307.892-1.289.879-2.56,1.807-3.831,2.7l-.048.036q-1.256.9-2.5,1.807c-4.693,3.476-9.283,7.114-13.855,10.765l-2.885,2.307q-2.235,1.771-4.47,3.536c-.873.693-1.759,1.379-2.638,2.066-.639.5-1.271,1-1.922,1.494-3.259,2.512-6.56,4.97-9.927,7.319-.8.56-1.614,1.12-2.41,1.669a127.044,127.044,0,0,1-21.409,11.795l-.1.042a84.95,84.95,0,0,1-11.373,3.922,68.1,68.1,0,0,1-6.7,1.452,59.2,59.2,0,0,1-18.162.313c-11.861-1.681-22.975-7.229-34.806-9.084-24.409-3.789-48.113,8.433-71.082,18.03q-8.434,3.53-17.054,6.626-5.711,2.06-11.476,3.922a361.3,361.3,0,0,1-72,15.4,166.383,166.383,0,0,1-30.571.825,103.247,103.247,0,0,1-11.445-1.488c-12.873-2.41-24.891-7.524-34.571-16.867-8.042-7.644-13.717-17.638-18.042-28.065q-2.608-6.283-4.6-12.855A143.367,143.367,0,0,1,71.987,464.2c-.235-1.6-.446-3.211-.6-4.819q-.47-4.138-.7-8.313A143.971,143.971,0,0,1,74.969,407.1c4.1-15.9,10.945-31.12,13.957-47.167.126-.675.241-1.349.355-2.024q.6-3.614.916-7.361c1.518-19.626-4.355-38.836-8.994-58.077-.163-.675-.325-1.349-.482-2.024q-.753-3.2-1.428-6.4c-4.3-20.349-5.47-42.125-1.657-62.432.12-.675.259-1.355.4-2.024a100.985,100.985,0,0,1,14.072-35.2c7.138-10.939,16.512-20.042,26.505-28.041q7.319-5.843,15.138-10.933,5.62-3.651,11.445-6.909a190.763,190.763,0,0,1,102.575-24.1q2.813.145,5.614.386,2.94.253,5.861.6c22.789,2.632,44.963,9.156,67,16.295q11.078,3.614,22.12,7.229,4.916,1.6,9.825,3.163c16.054,5.066,32.373,9.638,48.842,13.084q5.729,1.2,11.445,2.2A270.519,270.519,0,0,0,458.6,161.5q7.831.193,15.662-.163,3.958-.181,7.921-.53c27.294-2.337,53.613-10.174,80.04-17.536,3.819-1.066,7.644-2.126,11.445-3.15,5.024-1.349,10.054-2.657,15.1-3.861,31.433-7.548,59.444-3.211,88.666,12.355,6.626,3.536,13.253,7.8,17.349,14.4s5.09,14.777,5.849,22.644c1.072,11.192,1.807,22.542,2.042,33.939,0,.675,0,1.349.042,2.024A361.088,361.088,0,0,1,698,290.443Z" transform="translate(-70.44 -78.668)"/><path class="a" d="M273.975,211.021h.916a2.193,2.193,0,0,1-1.09-1.765h0c0-1.4,1.711-2.536,3.8-2.536h26.6c2.09,0,3.8,1.139,3.8,2.536h0c0,1.392-1.711,2.536-3.8,2.536h-.886a2.2,2.2,0,0,1,1.084,1.765c0,1.2-1.241,2.193-2.9,2.464h7.656c2.084,0,3.8,1.139,3.8,2.536s-1.711,2.53-3.8,2.53H282.523c-2.084,0-3.8-1.139-3.8-2.53,0-1.2,1.241-2.193,2.9-2.464h-7.656c-2.084,0-3.8-1.139-3.8-2.536S271.879,211.021,273.975,211.021Z" transform="translate(-149.853 -115.477)"/><path class="a" d="M752.495,251.091h.892a2.2,2.2,0,0,1-1.09-1.771h0c0-1.392,1.711-2.53,3.8-2.53h26.6c2.09,0,3.8,1.139,3.8,2.53h0c0,1.4-1.711,2.536-3.8,2.536h-.885a2.2,2.2,0,0,1,1.084,1.771c0,1.2-1.241,2.187-2.9,2.458h7.656c2.084,0,3.8,1.145,3.8,2.536s-1.711,2.536-3.8,2.536h-26.59c-2.084,0-3.795-1.139-3.795-2.536,0-1.2,1.241-2.193,2.9-2.458h-7.669c-2.084,0-3.8-1.145-3.8-2.536S750.423,251.091,752.495,251.091Z" transform="translate(-340.116 -131.409)"/><path class="a" d="M206.245,422.557h.892a2.2,2.2,0,0,1-1.084-1.771h0c0-1.392,1.7-2.536,3.8-2.536h26.6c2.09,0,3.8,1.145,3.8,2.536h0c0,1.4-1.711,2.536-3.8,2.536h-.886a2.2,2.2,0,0,1,1.084,1.771c0,1.2-1.241,2.187-2.9,2.458h7.656c2.09,0,3.8,1.139,3.8,2.536s-1.7,2.536-3.8,2.536h-26.6c-2.084,0-3.8-1.145-3.8-2.536,0-1.2,1.247-2.193,2.9-2.464h-7.656c-2.084,0-3.8-1.139-3.8-2.53S204.161,422.557,206.245,422.557Z" transform="translate(-122.923 -199.583)"/><path class="b" d="M691.062,713.44q-2.235,1.771-4.47,3.536c-.873.693-1.759,1.379-2.638,2.066-.638.5-1.271,1-1.922,1.494-3.259,2.512-6.56,4.97-9.927,7.319-.8.56-1.614,1.12-2.41,1.669a127.052,127.052,0,0,1-21.409,11.795l-.1.042V713.44Z" transform="translate(-300.153 -316.953)"/><path class="c" d="M649.054,434.39l.675-20.813c-.4-.313-.813-.6-1.2-.892a110.939,110.939,0,0,0-1.06-18.56c-2.723-20.813-20.4-21.264-25.391-16.969a12.045,12.045,0,0,1-2.151,1.482c.452-2.97,1.012-5.946,1.416-8.885,2.181-15.855-1.2-33.692-13.506-43.938-5.15-4.283-11.445-6.915-17.1-10.5-10.132-6.391-18.138-15.831-28.385-22.054s-24.638-8.554-33.577-.554c-3.464,3.1-5.7,7.391-9.253,10.379-6.626,5.566-16.957,5.934-22.74,12.15h0c-.289.313-.566.633-.831.97-4.819,6.181-3.5,14.945-1.964,22.614,1.849,9.229,1.084,16.626,9,19.277.03.367.054.735.1,1.1a39.1,39.1,0,0,0,17.2,28.144l-1.283.458c-3.422,1.2-6.5,2.373-8.47,3.175-7.229,2.946-22.445,6.783-22.445,6.783s-.361,4.337-.3,10.735c-5.072,5.512-13.536,15.2-16.024,20.939-3.614,8.373-24.035,32.354-29.475,35.975s-11.337,7.915-11.337,7.915-8.614,4.753-12.692,5.2c-2.825.313-11.566-1.361-11.566-1.361s-34.909-42.77-32.644-9.952,30.15,33.933,30.15,33.933l28.114-.452s15.192,2.036,21.993-3.614c5.807-4.819,35.9-31.258,45.571-43.252.223.247.446.488.681.723,0,0,3.849-4.976,4.307,0s-2.5,7.229-.91,9.036,6.349,8.144,6.572,10.632-6.343,12.65,4.759,20.361c.175.121.362.235.566.349,1.982,4.512,8.283,8.927,8.283,8.927l34.005-.452,64.161,4.976s1.91-1.681,4.494-4.428c3.452,3.169,8.241,5.885,13.638,4.217,0,0,7.711-9.271,7.94-15.379,0,0-4.988-12.9-7.229-16.74s1.59-12.217,1.59-12.217,2.717-8.144,4.307-8.144.452-5.422.452-5.422a6.59,6.59,0,0,1-.681-6.108A58.46,58.46,0,0,0,649.054,434.39Z" transform="translate(-191.111 -147.634)"/><path class="d" d="M721.184,484.737l-2.41,2.819h0l-9.735,11.337-12.717.771-20.355,1.253s-27.445-33.071-22.288-40.27c1.873-2.6,2.181-6.024,1.807-9.259-.048-.446-.114-.892-.193-1.331a38.486,38.486,0,0,0-3.2-9.879l.675-.307.434-.2,24-10.951,5.94-2.711a16.032,16.032,0,0,0,1.626,4.687c.114.229.241.458.373.675,8.187,13.554,34.439,4.982,34.439,4.982Z" transform="translate(-301.704 -202.669)"/><path class="d" d="M798.118,471.452c-.181,8.2-1.518,11.747-1.518,11.747l-33.969,5.175-1.271-8.819-5.03-34.824,4.723-4.723a12.608,12.608,0,0,0,10.8-2.7c4.946-4.277,22.493-3.825,25.192,16.867a114.52,114.52,0,0,1,1.072,17.277Z" transform="translate(-343.15 -206.305)"/><path class="e" d="M799.726,631.608s7.644-9.223,7.873-15.295l-7.65-12.825L793.2,596.26l-12.6,24.325S788.925,634.982,799.726,631.608Z" transform="translate(-352.8 -270.361)"/><path class="f" d="M799.726,631.608s7.644-9.223,7.873-15.295l-7.65-12.825L793.2,596.26l-12.6,24.325S788.925,634.982,799.726,631.608Z" transform="translate(-352.8 -270.361)"/><path class="g" d="M454.856,708.633c-.639.5-1.271,1-1.922,1.494-3.259,2.512-6.56,4.97-9.927,7.319-.8.56-1.614,1.12-2.41,1.669H248.435l-56.854-2.036-45.722-.385-11.445-.6-57.107-3.012a143.37,143.37,0,0,1-4.7-21c-.235-1.6-.446-3.211-.6-4.819l62.39,3.458,11.445.645,102.575,5.723,11.476.639,147.791,8.253,11.373.639h.1Z" transform="translate(-71.055 -306.544)"/><path class="h" d="M531.465,638.461a161.081,161.081,0,0,0-36.144,14.867c-.91.524-1.807,1.06-2.717,1.608s-1.807,1.1-2.681,1.663-1.753,1.126-2.62,1.7l-1.337.9-1.307.892c-1.289.885-2.56,1.807-3.831,2.7l-.048.036q-1.256.9-2.5,1.807c-4.693,3.476-9.283,7.114-13.855,10.765q-1.446,1.156-2.9,2.307l-4.458,3.536c-.873.693-1.759,1.38-2.638,2.066-.639.5-1.271,1-1.922,1.494l-33.734-1.608h-.1l-11.373-.53-147.857-7.006-11.476-.548L145.4,670.237l-11.445-.548-61.811-2.909c-.235-1.6-.446-3.211-.6-4.819q-.47-4.138-.7-8.313l63.107-22.289,11.445-4.054,10.4-3.674,18.945.988,43.788,2.247h0l29.469,1.548,11.476.6,7.331.386h0l1.753.1h0l61.7,3.223h0l.651.042h0l27.529,1.434h.494l2.753.139h0l9.385.494,11.735.6h0l3.867.2h0l.729.042,5.47.283h0l1.56.078h0l5.223.277h0l2.078.114h.5l4.885.259,7.566.4h.036l2.349.12h.253l1.4.078,3.446.181h0l3.012.157h.03l3.379.175h.054l2.56.139h0l1.964.1,6.97.367h0l1.253.066h.434l.6.036h0l2.042.108h0l.916.048h0l7.108.367h.651l10.494-.09h.072l39.9-.325h3.946l12.843-.1H522.3Z" transform="translate(-70.594 -281.244)"/><path class="i" d="M387.862,645.167l3.711,19.74,100.889-1.518s7.59,2.193,7.421-3.879c0,0,15.355-14.512,93.13,2.361L563.152,638.42l-81.624,4.385-94.648-2.53Z" transform="translate(-196.254 -287.124)"/><path class="j" d="M391.59,641.061l3.542,21.427s86.744-2.53,100.383-.169l-10.307-19.572S432.757,637.857,391.59,641.061Z" transform="translate(-198.127 -287.742)"/><path class="f" d="M391.59,641.061l3.542,21.427s86.744-2.53,100.383-.169l-10.307-19.572S432.757,637.857,391.59,641.061Z" transform="translate(-198.127 -287.742)"/><path class="j" d="M393.74,640.982l3.494,19.927s85.642-2.349,99.136-.157l-10.162-18.2S434.389,638,393.74,640.982Z" transform="translate(-198.982 -287.74)"/><path class="f" d="M396.35,642.038l3.4,18.638s83.763-2.2,96.985-.145L486.8,643.5S436.114,639.224,396.35,642.038Z" transform="translate(-200.019 -288.182)"/><path class="j" d="M397.47,640.916l3.422,18.674s83.763-2.2,96.985-.145L487.913,642.4S437.234,638.127,397.47,640.916Z" transform="translate(-200.465 -287.741)"/><path class="i" d="M291.133,557.41s4.385,5.729-2.018,14.385-11.692,15.957-9.554,21.355c0,0,9.638-16.072,17.53-16.265S299.79,567.072,291.133,557.41Z" transform="translate(-153.392 -254.914)"/><path class="f" d="M291.3,557.41a6.965,6.965,0,0,1,.9,1.807c7.674,9.036,11.765,17.469,4.385,17.65-6.873.193-15.114,12.482-17.09,15.59q.1.35.235.7s9.638-16.072,17.53-16.265S299.953,567.072,291.3,557.41Z" transform="translate(-153.555 -254.914)"/><path class="k" d="M311.952,568.686c0,2.012-.229,3.65-.506,3.65s-.506-1.638-.506-3.65.283-1.072.56-1.072S311.952,566.668,311.952,568.686Z" transform="translate(-166.06 -258.883)"/><path class="k" d="M314.98,572.613c-1.771.97-3.313,1.554-3.446,1.307s1.2-1.2,2.964-2.193,1.072-.265,1.2,0S316.751,571.649,314.98,572.613Z" transform="translate(-166.292 -260.406)"/><path class="i" d="M254.167,557.41s-4.385,5.729,2.024,14.385,11.686,15.957,9.554,21.355c0,0-9.668-16.072-17.536-16.265S245.51,567.072,254.167,557.41Z" transform="translate(-139.575 -254.914)"/><path class="f" d="M254.167,557.41a7.23,7.23,0,0,0-.9,1.807c-7.674,9.036-11.765,17.469-4.385,17.65,6.873.193,15.12,12.482,17.1,15.59a7.225,7.225,0,0,1-.235.7s-9.668-16.072-17.536-16.265S245.51,567.072,254.167,557.41Z" transform="translate(-139.575 -254.914)"/><path class="k" d="M247.13,568.686c0,2.012.229,3.65.506,3.65s.506-1.638.506-3.65-.283-1.072-.56-1.072S247.13,566.668,247.13,568.686Z" transform="translate(-140.688 -258.883)"/><path class="k" d="M241.781,572.613c1.771.97,3.319,1.554,3.452,1.307s-1.2-1.2-2.964-2.193-1.072-.265-1.2,0S240.01,571.649,241.781,572.613Z" transform="translate(-138.134 -260.406)"/><path class="b" d="M287.869,602.145l-.217,1.807-.307,2.524-.127,1.054-.307,2.53-.133,1.054-.313,2.53L282.96,642.39c-.313,2.566-4.506,4.566-9.566,4.566h-18.2c-5.06,0-9.247-2-9.56-4.566l-3.512-28.746-.307-2.53-.126-1.054-.313-2.53-.127-1.054-.307-2.524-.223-1.807c-.175-1.452,2.09-2.675,4.958-2.675h37.264C285.8,599.47,288.068,600.693,287.869,602.145Z" transform="translate(-138.133 -271.638)"/><path class="l" d="M217.384,551.59l-.307,2.53H170.957l-.307-2.53Z" transform="translate(-67.847 -219.294)"/><path class="l" d="M217.236,557.54l-.307,2.53H171.683l-.313-2.53Z" transform="translate(-68.133 -221.66)"/><path class="l" d="M217.087,563.49l-.307,2.524H172.407l-.307-2.524Z" transform="translate(-68.423 -224.025)"/><path class="d" d="M403.858,597.323s-11.7-11.247-11.247,3.373S403.858,597.323,403.858,597.323Z" transform="translate(-198.528 -269.141)"/><path class="d" d="M501.274,528.113c-.259,1.133-1.518,3.012-3.482,5.367-10.144,12.216-39,37.607-44.661,42.318-6.747,5.626-21.819,3.614-21.819,3.614l-27.891.452s-27.668-1.126-29.921-33.734,32.391,9.9,32.391,9.9,8.674,1.663,11.476,1.349c4.048-.446,12.6-5.169,12.6-5.169s5.849-4.277,11.247-7.873,25.644-27.445,29.246-35.77c2.283-5.283,9.638-13.921,14.716-19.523,2.916-3.223,5.078-5.422,5.078-5.422S502.846,521.137,501.274,528.113Z" transform="translate(-190.892 -225.575)"/><path class="f" d="M575.052,528.1c-.259,1.132-1.518,3.012-3.482,5.367C561.329,523.037,559.191,502.23,558.95,489c2.916-3.223,5.078-5.422,5.078-5.422S576.624,521.121,575.052,528.1Z" transform="translate(-264.67 -225.559)"/><path class="f" d="M718.769,496.574h0l-9.729,11.337-12.717.771-20.355,1.253s-27.445-33.071-22.288-40.27c1.873-2.6,2.181-6.024,1.807-9.259-.048-.446-.114-.892-.193-1.331a38.486,38.486,0,0,0-3.2-9.879l.675-.307.434-.2a43.2,43.2,0,0,1,2.2,9.223c.066.428.126.873.187,1.331.211,1.626.4,3.434.6,5.422,1.566,18.2,13.018,25.053,18.186,27.234a52.463,52.463,0,0,1,4.867,2.355,25.969,25.969,0,0,0,16.325,2.952c12.759-1.675,23.162-10.945,23.162-10.945l.054,9.126Z" transform="translate(-301.704 -211.686)"/><path class="e" d="M682.9,565.428s-83.678-.229-94.708-7.873-4.494-17.771-4.723-20.246-4.946-8.771-6.518-10.578,1.349-4.048.9-8.994-4.271,0-4.271,0c-15.753-15.975-12.379-56.462-12.379-56.462s15.06-3.819,22.288-6.753c1.958-.8,5.006-1.928,8.433-3.151l1.271-.458c8.837-3.163,19.343-6.735,19.343-6.735s2.018-1.428,4.048,2.843a37.548,37.548,0,0,1,2.608,10.18c.066.428.126.874.187,1.331.211,1.626.4,3.434.6,5.422,1.566,18.2,13.018,25.054,18.186,27.234a52.456,52.456,0,0,1,4.867,2.355,25.969,25.969,0,0,0,16.325,2.952c12.759-1.675,23.162-10.945,23.162-10.945l.054,9.126.157,27.421Z" transform="translate(-265.444 -209.801)"/><path class="d" d="M697.3,584.563l-1.349,8.548s-33.294,8.319-46.336,10.795-41.167-.675-43.192,4.723,8.548,12.825,8.548,12.825L648.7,621l63.661,4.952s24.294-21.373,16.421-36.222S697.3,584.563,697.3,584.563Z" transform="translate(-283.442 -264.478)"/><path class="f" d="M635.147,474.58s-15.3,12.6-12.373,18.674S635.147,474.58,635.147,474.58Z" transform="translate(-289.899 -221.98)"/><path class="f" d="M602.515,512.29s-15.524,26.77-14.62,28.794,5.175,9.223,4.946,3.825S602.515,512.29,602.515,512.29Z" transform="translate(-276.164 -236.974)"/><path class="f" d="M617.417,520.14s-3.614,16.644-7.2,23.62S617.417,520.14,617.417,520.14Z" transform="translate(-284.765 -240.095)"/><path class="f" d="M669.354,431.4a38.915,38.915,0,0,1-29.577,20.011H639.7a38.848,38.848,0,0,1-27.385-7.168c9.036-3.265,20.614-7.193,20.614-7.193s2.018-1.428,4.048,2.843l30.373-13.855a16.1,16.1,0,0,0,2,5.361Z" transform="translate(-285.891 -202.681)"/><path class="d" d="M663.509,376.09a38.74,38.74,0,0,1-5.12,19.313,39.2,39.2,0,0,1-5.8,7.723A38.752,38.752,0,0,1,629,414.788h-.078a38,38,0,0,1-4.325.247,38.915,38.915,0,0,1-38.668-34.53,37.773,37.773,0,0,1-.247-4.391,38.915,38.915,0,0,1,77.829,0Z" transform="translate(-275.298 -167.357)"/><path class="f" d="M754.945,511.461l3.614-5.421s19.795-23.62,39.156-8.548l-.675,20.7a54.878,54.878,0,0,1-2.253,9.638,6.584,6.584,0,0,0,.675,6.078s1.127,5.422-.446,5.422-4.277,8.1-4.277,8.1-3.825,8.325-1.572,12.15,7.2,16.644,7.2,16.644-7.873-4.723-10.126-12.6c0,0-19.12-14.849-33.969-5.421Z" transform="translate(-341.536 -229.091)"/><path class="f" d="M801.438,492.665c-.181,8.2-1.518,11.747-1.518,11.747l-33.969,5.175-1.271-8.819C769.126,496.129,785.294,481.382,801.438,492.665Z" transform="translate(-346.47 -227.518)"/><path class="e" d="M754.945,509.461l3.614-5.422s19.795-23.62,39.156-8.548l-.675,20.7a54.878,54.878,0,0,1-2.253,9.638,6.584,6.584,0,0,0,.675,6.078s1.127,5.422-.446,5.422-4.277,8.1-4.277,8.1-3.825,8.325-1.572,12.15,7.2,16.644,7.2,16.644-7.873-4.723-10.126-12.6c0,0-19.12-14.849-33.969-5.422Z" transform="translate(-341.536 -228.296)"/><path class="f" d="M789.2,496.61s-32.614,20.024-31.041,37.583C758.164,534.193,776.386,502.007,789.2,496.61Z" transform="translate(-343.857 -230.74)"/><path class="f" d="M692.314,452.238l.157,27.421c-6.168.277-11.982-.524-16.578-4.518a19.893,19.893,0,0,1-6.024-10.783,38.2,38.2,0,0,1-.783-10.2.541.541,0,0,1,0-.1c.38-7.572,2.12-15.144,1.2-22.668s-5.476-15.463-12.921-17.048c-1.47-.319-3.12-.434-4.169-1.512-1.157-1.2-1.1-3.078-.976-4.747l.217-2.813c.054-.723.078-1.44.078-2.157a27.608,27.608,0,0,0-22.289-27.071L629.99,376a15.222,15.222,0,0,0-6.373-.355c-3.988.922-6.566,4.789-10.241,6.626-7.048,3.518-18.8-.331-26.18-1.542-.482-.078-.94-.169-1.379-.271a37.787,37.787,0,0,1-.247-4.391,38.915,38.915,0,1,1,72.709,19.313c.114.229.241.458.373.675,8.187,13.554,34.439,4.982,34.439,4.982l1.578,48.366Z" transform="translate(-275.255 -167.344)"/><path class="m" d="M608.149,363.209c3.651-1.843,6.229-5.711,10.241-6.626a15.364,15.364,0,0,1,6.379.349l.241.048A27.632,27.632,0,0,1,647.2,386.214l-.217,2.813c-.132,1.663-.187,3.548.982,4.741,1.042,1.078,2.693,1.2,4.162,1.506,7.446,1.59,12.006,9.488,12.921,17.054s-.855,15.162-1.2,22.764,1.048,15.993,6.8,20.987c9.036,7.831,22.77,3.373,34.728,2.657-5.289,0-9.253-5.458-9.542-10.735s2.06-10.3,4.307-15.06,4.5-9.879,4-15.144c-.687-7.229-6.385-13.018-8.566-19.975-2.542-8.1-.09-16.789,1.06-25.2,2.163-15.759-1.2-33.5-13.4-43.685-5.108-4.259-11.355-6.879-16.969-10.445-10.06-6.379-17.993-15.734-28.162-21.939s-24.445-8.506-33.318-.554c-3.434,3.078-5.65,7.349-9.18,10.319-6.9,5.813-17.861,5.922-23.391,13.054-4.759,6.138-3.47,14.855-1.946,22.475,2.03,10.162.885,18.072,11.747,19.879C589.349,362.883,601.1,366.733,608.149,363.209Z" transform="translate(-268.612 -148.951)"/><path class="f" d="M697.589,471.988c-8.7,1.066-17.331,1.614-23.668-3.879-5.747-4.994-7.162-13.379-6.795-20.987s2.126-15.21,1.2-22.77-5.476-15.457-12.921-17.048c-1.47-.313-3.114-.428-4.162-1.506-1.163-1.2-1.114-3.084-.982-4.747l.217-2.813A27.626,27.626,0,0,0,628.3,369.009l-.241-.048a15.364,15.364,0,0,0-6.379-.349c-3.988.922-6.566,4.819-10.241,6.626-7.054,3.524-18.795-.325-26.186-1.536-10.843-1.777-9.711-9.7-11.747-19.879-1.139-5.687-2.145-11.988-.6-17.373a9.479,9.479,0,0,0-.831.97c-4.759,6.138-3.47,14.855-1.946,22.475,2.03,10.162.886,18.072,11.747,19.879,7.385,1.2,19.132,5.06,26.186,1.536,3.651-1.843,6.229-5.711,10.241-6.626a15.365,15.365,0,0,1,6.379.349l.241.048A27.632,27.632,0,0,1,647.1,404.315l-.217,2.813c-.133,1.663-.187,3.548.982,4.741,1.042,1.078,2.693,1.2,4.163,1.506,7.445,1.59,12.006,9.488,12.921,17.054s-.849,15.162-1.2,22.764,1.048,15.994,6.8,20.987c9.036,7.831,22.77,3.373,34.728,2.657C702.022,476.856,699.294,474.8,697.589,471.988Z" transform="translate(-268.56 -167.059)"/><path class="n" d="M373.178,585.517l37.137-13.855a3.536,3.536,0,0,1,4.548,2.072h0a3.536,3.536,0,0,1-2.072,4.548l-37.137,13.855-7.964-.8Z" transform="translate(-188.624 -260.492)"/><path class="o" d="M413.727,572.968h0a3.536,3.536,0,0,1-2.078,4.548l-37.162,13.9-5.976-.6-.861.916,7.964.8,37.138-13.855a3.536,3.536,0,0,0,2.072-4.548h0a3.536,3.536,0,0,0-1.446-1.765A4.1,4.1,0,0,1,413.727,572.968Z" transform="translate(-188.608 -260.858)"/><path class="p" d="M302.748,539.52l2.47,6.62-6.53-.657-1.428-.145,1.952-2.072Z" transform="translate(-118.188 -214.495)"/><path class="q" d="M369.654,601a1.577,1.577,0,0,1,.386.416.6.6,0,0,1,0,.645,1.283,1.283,0,0,1-.355.259,1.2,1.2,0,0,0-.53.891l-1.434-.138Z" transform="translate(-188.636 -272.246)"/><path class="j" d="M569.917,650.754s32.168-6.753,86.142,1.807l-21.144-15.518-38.469-7.873L569.23,636.4Z" transform="translate(-268.758 -283.447)"/><path class="f" d="M569.917,650.754s32.168-6.753,86.142,1.807l-21.144-15.518-38.469-7.873L569.23,636.4Z" transform="translate(-268.758 -283.447)"/><path class="j" d="M557.335,659.277s16.2-43.818,99.395.139L626.869,640.2s-71.534-19.765-79.8,3.012Z" transform="translate(-259.947 -284.669)"/><path class="f" d="M557.307,657.146s16.2-46.848,99.395.843l-29.861-20.843s-71.558-23.638-79.841,1.1Z" transform="translate(-259.919 -282.568)"/><path class="j" d="M557.335,657.046s16.2-47.541,99.395.151l-29.861-20.843s-71.534-22.963-79.8,1.807Z" transform="translate(-259.947 -282.45)"/><path class="f" d="M557.319,655.783s16.2-52.836,99.395.813l-29.885-23.451s-71.534-24.1-79.8,3.711Z" transform="translate(-259.931 -281.175)"/><path class="j" d="M557.319,655.307s16.2-53.48,99.395.169l-29.885-23.451s-71.534-24.1-79.8,3.711Z" transform="translate(-259.931 -280.729)"/><path class="a" d="M972.182,668.71s-19.969,21.391-1.994,31.782a4.986,4.986,0,0,0,5.7,1.349s-1.133-1.006,1.139-2.946a13.477,13.477,0,0,0,2.138-2.349,6.626,6.626,0,0,0,1.241-4.012h0s2.615-8.488-5.693-19.505c0,0-.753-3.687-1.391-4.09l-1.518,5.138s3.813.97,5.247,3.873c0,0-5.024-3.946-5.512-3.12-.1.169-.681,2.765-.681,2.765s6.626,1.711,8.7,6.265c0,0-5.355-5.5-8.927-5.283l-.651,3.964s7.09,1.47,9.638,6.566c0,0-5.795-5.56-9.735-5.687l-.115,3.982s6.885,1.566,8.988,5.819c0,0-7.343-5.741-8.951-4.9,0,0,.114,3.669.6,4.626,0,0,4.916,1.2,5.916,3.819,0,0-5.313-3.319-5.771-2.813,0,0,1.428,4.735,3.416,6.753a14.986,14.986,0,0,1-4.144-6.494,8.264,8.264,0,0,0-1,4.62s-1.97-2.181.669-5.771c0,0-.964-3.735-.723-4.325,0,0-3.1,3.175-3.9,6.024,0,0-.6-3.566,3.891-7.054v-4.012s-4.325,3.982-5.217,6.446c0,0-.06-3.735,5.307-7.452l.6-3.9s-3.988,3.144-5.572,5.675c0,0,.687-3.482,5.783-6.783l.7-2.554s-2.867,2.349-3.614,3.1-1.03.6-1.03.6a12.65,12.65,0,0,1,4.94-4.783S972.513,668.849,972.182,668.71Z" transform="translate(-425.198 -299.168)"/><path class="a" d="M1115.108,90.91s-26.68,12.048-14.1,28.547a4.993,4.993,0,0,0,4.741,3.452s-.656-1.367,2.187-2.283a13.2,13.2,0,0,0,2.879-1.343,6.627,6.627,0,0,0,2.693-3.223h0s5.687-6.819,2.271-20.186c0,0,.729-3.693.3-4.313l-3.385,4.157s3.145,2.361,3.349,5.6c0,0-3.108-5.578-3.879-5-.157.114-1.693,2.283-1.693,2.283s5.422,4.132,5.608,9.138c0,0-2.819-7.144-6.2-8.325l-2.126,3.41s5.976,4.09,6.373,9.777c0,0-3.2-7.361-6.789-9l-1.645,3.614s5.753,4.1,6.024,8.837c0,0-4.56-8.132-6.367-7.976,0,0-1.307,3.422-1.2,4.5,0,0,4.06,3.012,3.988,5.807,0,0-3.614-5.108-4.217-4.819,0,0-.512,4.916.548,7.548a14.955,14.955,0,0,1-1.319-7.59,8.244,8.244,0,0,0-2.7,3.879s-.976-2.777,2.843-5.072c0,0,.548-3.813,1-4.265,0,0-4.09,1.729-5.909,4.03,0,0,.813-3.524,6.313-5.006l1.566-3.687s-5.524,2-7.3,3.928c0,0,1.385-3.47,7.771-4.819l2.054-3.361s-4.891,1.367-7.331,3.084c0,0,1.982-2.94,7.958-4.024l1.632-2.084s-3.554,1.06-4.548,1.458-1.2.163-1.2.163a12.649,12.649,0,0,1,6.439-2.506S1115.324,91.151,1115.108,90.91Z" transform="translate(-478.856 -69.43)"/><path class="a" d="M689.149,103.29s-40.083,11.445-20.6,28.481c0,0,1.729,3.614,7.277,3.614,0,0-1.036-1.4,3.253-2.247a25.475,25.475,0,0,0,4.325-1.277,7.717,7.717,0,0,0,3.988-3.187h0s8.433-6.747,2.9-20.349c0,0,1.006-3.711.331-4.349l-5.012,4.108s4.819,2.476,5.223,5.747c0,0-4.861-5.717-6.024-5.156-.235.114-2.506,2.259-2.506,2.259s8.361,4.325,8.741,9.391c0,0-4.458-7.295-9.638-8.578l-3.132,3.385s9.156,4.3,9.909,10.054c0,0-5.048-7.524-10.518-9.277l-2.41,3.614s8.819,4.3,9.4,9.1c0,0-7.126-8.343-9.861-8.241,0,0-1.885,3.434-1.717,4.524,0,0,6.229,3.181,6.2,5.976,0,0-5.626-5.265-6.554-4.988,0,0-.638,4.958,1.036,7.644,0,0-2.9-3.861-2.2-7.7,0,0-3.187,1.6-3.988,3.843,0,0-1.554-2.825,4.169-5.042,0,0,.729-3.843,1.4-4.289,0,0-6.144,1.639-8.837,3.916,0,0,1.133-3.542,9.421-4.891l2.277-3.687s-8.313,1.879-10.951,3.777c0,0,2.006-3.47,11.644-4.675l3.012-3.343s-7.373,1.247-11.024,2.922c0,0,2.922-2.922,11.939-3.855l2.409-2.06s-5.355.976-6.849,1.349-1.807.133-1.807.133A23.729,23.729,0,0,1,684,107.567S689.5,103.543,689.149,103.29Z" transform="translate(-306.125 -74.353)"/><path class="a" d="M897.026,822.544s20.18-21.2,2.307-31.764a4.994,4.994,0,0,0-5.693-1.41s1.126,1.018-1.163,2.94a13.6,13.6,0,0,0-2.162,2.325,6.583,6.583,0,0,0-1.277,4h0s-2.7,8.464,5.5,19.56c0,0,.717,3.693,1.349,4.108l1.572-5.126s-3.807-1.006-5.211-3.922c0,0,4.982,3.988,5.476,3.169.1-.169.711-2.753.711-2.753s-6.626-1.807-8.638-6.349c0,0,5.3,5.554,8.879,5.367l.687-3.958s-7.072-1.536-9.584-6.626c0,0,5.741,5.614,9.681,5.783l.151-3.988s-6.873-1.663-8.958-5.94c0,0,7.289,5.819,8.9,4.994,0,0-.078-3.663-.6-4.626,0,0-4.9-1.289-5.879-3.879,0,0,5.283,3.373,5.741,2.867,0,0-1.379-4.747-3.349-6.783a14.98,14.98,0,0,1,4.084,6.53,8.235,8.235,0,0,0,1.042-4.608s1.952,2.2-.723,5.765c0,0,.928,3.747.681,4.331,0,0,3.132-3.144,3.952-5.958,0,0,.6,3.572-3.958,7.012l-.06,4.012s4.361-3.94,5.277-6.4c0,0,0,3.741-5.379,7.4l-.6,3.891s4.018-3.108,5.626-5.62c0,0-.723,3.47-5.849,6.723l-.729,2.548s2.891-2.319,3.662-3.06,1.036-.6,1.036-.6a12.61,12.61,0,0,1-4.988,4.735S896.725,822.4,897.026,822.544Z" transform="translate(-395.746 -346.981)"/><path class="a" d="M575.85,56.06s3.44,29.059,22.981,22.048a5,5,0,0,0,4.717-3.488s-1.506.217-1.518-2.771a13.485,13.485,0,0,0-.416-3.151,6.579,6.579,0,0,0-2.259-3.536h0s-4.8-7.482-18.6-8.217c0,0-3.3-1.807-4.024-1.578l2.946,4.476s3.2-2.289,6.343-1.506c0,0-6.253,1.289-5.934,2.193.06.187,1.663,2.3,1.663,2.3s5.632-3.976,10.451-2.62c0,0-7.656.53-9.8,3.4l2.572,3.06s5.7-4.47,11.247-3.138c0,0-7.988.843-10.632,3.765l3,2.663s5.638-4.253,10.241-3.108c0,0-9.132,1.9-9.53,3.669,0,0,2.873,2.277,3.934,2.518,0,0,4.12-2.958,6.735-2.054,0,0-5.964,1.916-5.873,2.59,0,0,4.536,1.964,7.361,1.747a15.286,15.286,0,0,1-7.632-1.024,8.26,8.26,0,0,0,2.885,3.747s-2.94.09-3.982-4.217c0,0-3.47-1.675-3.765-2.235,0,0,.422,4.416,2.066,6.843,0,0-3.12-1.807-2.879-7.524l-3.012-2.608s.247,5.873,1.548,8.15c0,0-2.891-2.367-2.265-8.867l-2.584-2.97s-.175,5.072.729,7.915c0,0-2.211-2.771-1.44-8.795l-1.5-2.187s-.054,3.7,0,4.777-.2,1.175-.2,1.175a12.651,12.651,0,0,1-.47-6.885S576.151,55.915,575.85,56.06Z" transform="translate(-271.39 -55.29)"/><path class="a" d="M798.865,734.343s-28.2-7.831-29.108,12.915a5,5,0,0,0,1.44,5.687s.367-1.47,3.139-.355a13.49,13.49,0,0,0,3.072.813,6.584,6.584,0,0,0,4.132-.759h0s8.735-1.6,14.662-14.06c0,0,2.922-2.367,3.012-3.126l-5.259,1.03s.9,3.831-1.012,6.446c0,0,1.2-6.277.223-6.325-.2,0-2.765.669-2.765.669s1.542,6.662-1.536,10.608c0,0,2.41-7.289.56-10.361l-3.819,1.259s1.976,6.964-1.361,11.59c0,0,2.253-7.7.542-11.259l-3.578,1.741s1.807,6.831-1.006,10.662c0,0,1.7-9.168.211-10.211,0,0-3.193,1.807-3.813,2.687,0,0,1.2,4.934-.651,7.012,0,0,.482-6.247-.175-6.416,0,0-3.542,3.452-4.409,6.15a14.978,14.978,0,0,1,3.843-6.675,8.273,8.273,0,0,0-4.56,1.247s1.024-2.753,5.422-2.072c0,0,2.867-2.584,3.5-2.638,0,0-4.217-1.289-7.12-.687,0,0,2.88-2.193,8.054.193l3.566-1.807s-5.53-1.994-8.126-1.651c0,0,3.283-1.807,9.036,1.259l3.723-1.271s-4.626-2.078-7.6-2.319c0,0,3.4-.994,8.687,2l2.59-.56s-3.409-1.458-4.427-1.807-1.012-.6-1.012-.6a12.65,12.65,0,0,1,6.524,2.169S798.883,734.675,798.865,734.343Z" transform="translate(-348.348 -324.688)"/></g></svg>