<svg xmlns="http://www.w3.org/2000/svg" width="1920" height="490.305" viewBox="0 0 1920 490.305"><defs><style>.a{fill:#efebff;}.b{fill:#7e88ff;}</style></defs><g transform="translate(0 0.305)"><path class="a" d="M0,163.435l64,18.216c64,17.535,192,54.989,320,18.046C512,163.435,640,54.478,768,27.239s256,27.239,384,90.74c128,64.182,256,135.685,384,118.15,128-18.216,256-127.173,320-181.651L1920,0V490.3H0Z" transform="translate(1920 490) rotate(180)"/><path class="b" d="M0,224l64-10.7C128,203,256,181,384,202.7,512,224,640,288,768,304s256-16,384-53.3c128-37.7,256-79.7,384-69.4C1664,192,1792,256,1856,288l64,32V32H0Z" transform="translate(0 -32)"/></g></svg>